<svg xmlns="http://www.w3.org/2000/svg" xmlns:xlink="http://www.w3.org/1999/xlink" viewBox="0 0 174.01 145.52"><defs><style>.cls-1{fill:url(#Covout);}</style><linearGradient id="Covout" x1="-201.43" y1="120.96" x2="506.23" y2="14.53" gradientUnits="userSpaceOnUse"><stop offset="0" stop-color="#80cd39"/><stop offset="0.16" stop-color="#73c73d"/><stop offset="0.46" stop-color="#50b748"/><stop offset="0.56" stop-color="#49b447"/><stop offset="0.71" stop-color="#37ac43"/><stop offset="0.88" stop-color="#199e3d"/><stop offset="1" stop-color="#009338"/></linearGradient></defs><title>Fichier 2</title><g id="Calque_2" data-name="Calque 2"><g id="Calque_1-2" data-name="Calque 1"><path class="cls-1" d="M67.82,27.88A27.88,27.88,0,1,1,95.7,55.76,27.88,27.88,0,0,1,67.82,27.88Zm-33,24.58A20.29,20.29,0,1,0,14.56,32.17,20.29,20.29,0,0,0,34.84,52.46ZM167,108.55l-16.29-.08-.08-16.81a7,7,0,0,0-6.95-7,6.77,6.77,0,0,0-4.86,2,7,7,0,0,0-2,5l.08,16.74-16.78-.08a6.92,6.92,0,0,0-4.94,2.05,6.85,6.85,0,0,0-2,4.88,7,7,0,0,0,7,6.91l16.81.08.08,16.3a7,7,0,0,0,6.92,7h0a6.81,6.81,0,0,0,4.87-2,7,7,0,0,0,2-5l-.08-16.22,16.25.08a6.93,6.93,0,0,0,5-2,6.81,6.81,0,0,0,2-4.88A7,7,0,0,0,167,108.55Zm-38-8.06,0-8.79a14.78,14.78,0,0,1,2.55-8.41A47.85,47.85,0,0,0,65,78.3,34.82,34.82,0,0,0,0,95.61H52a47.69,47.69,0,0,0-4.15,19.48h57.53a14.76,14.76,0,0,1,14.84-14.65Z"/></g></g></svg>