<svg xmlns="http://www.w3.org/2000/svg" xmlns:xlink="http://www.w3.org/1999/xlink" viewBox="0 0 151.18 162.36"><defs><style>.cls-1{fill:url(#Covout);}.cls-2{fill:#fff;}</style><linearGradient id="Covout" x1="134.84" y1="72.27" x2="668.67" y2="-8.02" gradientUnits="userSpaceOnUse"><stop offset="0" stop-color="#80cd39"/><stop offset="0.16" stop-color="#73c73d"/><stop offset="0.46" stop-color="#50b748"/><stop offset="0.56" stop-color="#49b447"/><stop offset="0.71" stop-color="#37ac43"/><stop offset="0.88" stop-color="#199e3d"/><stop offset="1" stop-color="#009338"/></linearGradient></defs><title>Fichier 3</title><g id="Calque_2" data-name="Calque 2"><g id="Calque_1-2" data-name="Calque 1"><path class="cls-1" d="M42.23,0,0,91.5l28.24,33.62L70.48,33.6,42.23,0Zm76.4,35.26-43.85.32L32.54,127.1l43.86-.34,42.23-91.5Zm4.34,2-42.23,91.5,28.2,33.6,42.24-91.52L123,37.26Z"/><path class="cls-2" d="M75.54,64.89A14.83,14.83,0,0,0,62.75,87.28L54.33,95.7a3.79,3.79,0,0,0-1.07,2.62A3.71,3.71,0,0,0,57,102,3.68,3.68,0,0,0,59.59,101L68,92.54a14.85,14.85,0,1,0,7.53-27.64Zm0,24.76a9.9,9.9,0,1,1,9.9-9.9A9.9,9.9,0,0,1,75.54,89.65Z"/></g></g></svg>