<svg xmlns="http://www.w3.org/2000/svg" xmlns:xlink="http://www.w3.org/1999/xlink" viewBox="0 0 609.55 122.69"><defs><style>.cls-1{fill:url(#Covout);}.cls-2{fill:url(#Covout-2);}.cls-3{fill:#2b2825;}</style><linearGradient id="Covout" x1="22.66" y1="71.07" x2="152.48" y2="-15.05" gradientUnits="userSpaceOnUse"><stop offset="0" stop-color="#80cd39"/><stop offset="0.16" stop-color="#73c73d"/><stop offset="0.46" stop-color="#50b748"/><stop offset="0.56" stop-color="#49b447"/><stop offset="0.71" stop-color="#37ac43"/><stop offset="0.88" stop-color="#199e3d"/><stop offset="1" stop-color="#009338"/></linearGradient><linearGradient id="Covout-2" x1="44.59" y1="104.14" x2="174.41" y2="18.02" xlink:href="#Covout"/></defs><title>Fichier 3</title><g id="Calque_2" data-name="Calque 2"><g id="Calque_1-2" data-name="Calque 1"><path class="cls-1" d="M42.14,107A57.33,57.33,0,0,1,27.59,92.76,56.62,56.62,0,0,1,17.15,61.34a57,57,0,0,1,25-45.68A8.57,8.57,0,0,0,32.5,1.48,73.94,73.94,0,0,0,0,61.34a74,74,0,0,0,32.5,59.86A8.57,8.57,0,0,0,42.14,107Z"/><path class="cls-2" d="M145.76,44.36A74.21,74.21,0,0,0,115.56,1.48a8.57,8.57,0,1,0-9.63,14.19,57.27,57.27,0,0,1,9.25,7.83,9.44,9.44,0,0,1-1.62,14.4l-1.12.74a9.45,9.45,0,0,1-12-1.29,35.36,35.36,0,0,0-60.58,24,35.36,35.36,0,0,0,60.58,24,9.45,9.45,0,0,1,12-1.29l1.12.74a9.44,9.44,0,0,1,1.62,14.4,57.27,57.27,0,0,1-9.25,7.83,8.57,8.57,0,1,0,9.63,14.19,73.94,73.94,0,0,0,32.5-59.86A74.16,74.16,0,0,0,145.76,44.36ZM75,77.65A16.43,16.43,0,1,1,91.4,61.22,16.43,16.43,0,0,1,75,77.65Z"/><path class="cls-3" d="M254.43,80.76a8.76,8.76,0,0,0-6.09,2.44,31,31,0,1,1-21.12-53.62A31.07,31.07,0,0,1,248,37.45a8.81,8.81,0,0,0,6,2.3,9,9,0,0,0,9-9.47,8.8,8.8,0,0,0-3-6.19,49,49,0,1,0-32.77,85.45,49.46,49.46,0,0,0,33.42-13.15,9.16,9.16,0,0,0,.47-12.74A9.29,9.29,0,0,0,254.43,80.76Z"/><path class="cls-3" d="M302.17,43.49a32.9,32.9,0,1,0,33,33A32.94,32.94,0,0,0,302.17,43.49Zm0,47.43A14.53,14.53,0,1,1,316.7,76.39,14.55,14.55,0,0,1,302.17,90.92Z"/><path class="cls-3" d="M398.33,46.41a8.61,8.61,0,0,0-4-1,8.89,8.89,0,0,0-7.9,4.87L370.88,80.6,355.3,49.44a8.88,8.88,0,0,0-11.87-4.05,9,9,0,0,0-4.08,12v0l23.53,46.93a8.77,8.77,0,0,0,7.84,5h.13a8.77,8.77,0,0,0,7.84-5l23.52-46A8.86,8.86,0,0,0,398.33,46.41Z"/><path class="cls-3" d="M460.57,43.49a32.9,32.9,0,1,0,33,33A32.94,32.94,0,0,0,460.57,43.49Zm14.53,32.9a14.53,14.53,0,1,1-14.53-14.53A14.55,14.55,0,0,1,475.1,76.39Z"/><path class="cls-3" d="M553.16,45.12A9.65,9.65,0,0,0,547,47.65a8.66,8.66,0,0,0-3.11,6.46V77c0,8.29-5.89,14.78-13.4,14.78-6.27,0-13.28-6.32-13.28-14.78V53.11c0-4.79-4.38-9-9.37-9a8.77,8.77,0,0,0-8.5,9V77c0,18.14,14,32.9,31.15,32.9S561.79,95.15,561.79,77V54.11A8.83,8.83,0,0,0,553.16,45.12Z"/><path class="cls-3" d="M599.93,91.17h-.8a1.86,1.86,0,0,1-.8-.09l0,0,0,0a3.27,3.27,0,0,1-.22-1.19,9.13,9.13,0,0,0-.13-1.09V60.61h2.64a9,9,0,1,0,0-18h-2.64V20.2a9,9,0,0,0-18,0V42.61H576a9,9,0,1,0,0,18h3.89v30a20,20,0,0,0,4.62,12.24A19.45,19.45,0,0,0,596.45,109h.06a29.68,29.68,0,0,0,3.42.13,8.9,8.9,0,0,0,9-9A9,9,0,0,0,599.93,91.17Z"/><path class="cls-3" d="M429.46,19.64a5.46,5.46,0,0,0-10.1,4.15h0a9.33,9.33,0,0,1,.49,3,7.74,7.74,0,0,1-.69,3.26,9,9,0,0,1-3.09,3.55,5.46,5.46,0,0,0,6.38,8.87,20,20,0,0,0,6.63-7.85,18.66,18.66,0,0,0,1.69-7.83A19.47,19.47,0,0,0,429.46,19.64Zm-10.1,4.16h0l.28.05Zm0,.06Z"/></g></g></svg>