<svg xmlns="http://www.w3.org/2000/svg" xmlns:xlink="http://www.w3.org/1999/xlink" viewBox="0 0 153.62 150.4"><defs><style>.cls-1{fill:url(#Covout);}</style><linearGradient id="Covout" x1="-624.46" y1="186.68" x2="122.26" y2="74.38" gradientUnits="userSpaceOnUse"><stop offset="0" stop-color="#80cd39"/><stop offset="0.16" stop-color="#73c73d"/><stop offset="0.46" stop-color="#50b748"/><stop offset="0.56" stop-color="#49b447"/><stop offset="0.71" stop-color="#37ac43"/><stop offset="0.88" stop-color="#199e3d"/><stop offset="1" stop-color="#009338"/></linearGradient></defs><title>Fichier 1</title><g id="Calque_2" data-name="Calque 2"><g id="Calque_1-2" data-name="Calque 1"><path class="cls-1" d="M103.58,100.38a6.16,6.16,0,1,1-8.4-2.7A6.27,6.27,0,0,1,103.58,100.38ZM149,30.47,123.7,91.1l-1.26-.41-1.3,0L126,20.95c-14.24-5-29.38-4.79-44.43-2.1,4.87-2.49,9.87-4.66,14.64-6.93,6.36-2.9,12.4-5.67,17.84-8.56L120.6,0c16.53-.35,28.62,3.81,32,12.19C154.86,17.52,153.33,23.81,149,30.47Zm-8.59-2.26-11.9,44.66,16.91-40.8A57.37,57.37,0,0,0,140.43,28.21Zm-11.84-6.28-4,55.42,13.55-50.63C134.9,24.91,131.68,23.27,128.59,21.93Zm-6.82,70.3a3,3,0,0,0-3.48,2.3L117,102l-10.94,3.8a8,8,0,0,1-3.45,4.67l-.47.19a8.78,8.78,0,0,1-6.38.53,8.07,8.07,0,0,1-2.21-1l-8.89,3.9-6-4.56a3,3,0,0,0-4.11.72,3,3,0,0,0,.56,4.17s6.66,5.23,7.83,5.86a3.42,3.42,0,0,0,2.81.16l9.42-3,5.06,15c.13.32.19.47.41.57a2.18,2.18,0,0,0,1.32,1.49h0l9.7,1.82L116.87,148a3.34,3.34,0,0,0,3.85,2.31,3.51,3.51,0,0,0,3-3.94c-.13-.32,0-.54-.16-.85l-6.14-14,.6.13,5.19,11.67a3.34,3.34,0,0,0,3.85,2.31,3.51,3.51,0,0,0,3-3.94c-.13-.32,0-.54-.16-.85l-6.14-14s-.5-1.26-3.25-2.19c-2.37-.89-6-1.65-7.61-2.1L109.47,112l11.13-5.16a3.73,3.73,0,0,0,2-1.89c.35-1.42,1.82-9.7,1.82-9.7A3.23,3.23,0,0,0,121.77,92.23ZM71.9,110.06,17.19,83.49C8.94,81.64,3.13,78.09.93,72.56-5.61,56.11,23,29.14,65.09,12.41,82,5.67,98.54,1.66,112.64.26,85.37,14.59,42.44,28.2,25.95,61.32L73.3,108l-.92.91ZM20.8,76c-.32,2-.8,4-1,5.88l36.31,17.6ZM62,100.44,24.74,63.81a71.38,71.38,0,0,0-3.33,9.57Z"/></g></g></svg>